<svg width="541" height="309" viewBox="0 0 541 309" fill="none" xmlns="http://www.w3.org/2000/svg">
<g opacity="0.04">
<mask id="path-1-outside-1_46_3699" maskUnits="userSpaceOnUse" x="0" y="0" width="541" height="309" fill="black">
<rect fill="white" width="541" height="309"/>
<path d="M109.918 301H163.84C169.692 301 173.454 298.492 175.126 293.058L264.16 19.686C266.25 12.998 262.906 8.39998 255.8 8.39998H214C208.566 8.39998 204.386 10.908 202.714 16.76L137.088 234.12L71.044 16.76C69.372 10.908 65.192 8.39998 59.758 8.39998H17.958C10.852 8.39998 7.508 12.998 9.598 19.686L98.632 293.058C100.304 298.492 104.484 301 109.918 301ZM529.939 288.878L449.265 190.23C481.869 174.764 504.023 142.16 504.023 105.794C504.023 51.872 460.551 8.39998 407.047 8.39998H353.543H305.891C299.621 8.39998 296.277 12.162 296.277 18.432V291.386C296.277 297.656 299.621 301 305.891 301H343.511C350.199 301 353.543 297.656 353.543 291.386V199.844H389.491L467.239 295.148C470.583 299.746 474.345 301 479.779 301H524.087C532.447 301 534.955 295.148 529.939 288.878ZM353.543 62.322H407.047C428.783 62.322 446.757 81.55 446.757 105.794C446.757 130.038 428.783 148.848 407.047 148.848H353.543V62.322Z"/>
</mask>
<path d="M175.126 293.058L167.519 290.581L167.499 290.643L167.48 290.705L175.126 293.058ZM264.16 19.686L271.767 22.1634L271.782 22.1179L271.796 22.0722L264.16 19.686ZM202.714 16.76L210.373 19.0723L210.39 19.0152L210.406 18.9578L202.714 16.76ZM137.088 234.12L129.434 236.446L137.112 261.718L144.747 236.432L137.088 234.12ZM71.044 16.76L63.3518 18.9578L63.3701 19.0219L63.3895 19.0858L71.044 16.76ZM9.598 19.686L1.96216 22.0722L1.97644 22.1179L1.99127 22.1634L9.598 19.686ZM98.632 293.058L106.278 290.705L106.259 290.643L106.239 290.581L98.632 293.058ZM109.918 309H163.84V293H109.918V309ZM163.84 309C167.881 309 172.024 308.131 175.614 305.638C179.266 303.101 181.529 299.453 182.772 295.411L167.48 290.705C167.051 292.097 166.597 292.42 166.487 292.496C166.316 292.615 165.651 293 163.84 293V309ZM182.733 295.535L271.767 22.1634L256.553 17.2086L167.519 290.581L182.733 295.535ZM271.796 22.0722C273.33 17.1642 273.312 11.4622 269.869 6.78941C266.427 2.11761 260.979 0.399979 255.8 0.399979V16.4C256.735 16.4 257.192 16.5534 257.31 16.6031C257.394 16.638 257.2 16.5686 256.988 16.2806C256.776 15.9925 256.763 15.7822 256.771 15.8595C256.782 15.9746 256.794 16.4363 256.524 17.2998L271.796 22.0722ZM255.8 0.399979H214V16.4H255.8V0.399979ZM214 0.399979C210.072 0.399979 205.944 1.31233 202.347 3.83997C198.683 6.41412 196.277 10.1692 195.022 14.5622L210.406 18.9578C210.823 17.4988 211.343 17.0739 211.546 16.931C211.815 16.7416 212.494 16.4 214 16.4V0.399979ZM195.055 14.4477L129.429 231.808L144.747 236.432L210.373 19.0723L195.055 14.4477ZM144.742 231.794L78.6985 14.4342L63.3895 19.0858L129.434 236.446L144.742 231.794ZM78.7362 14.5622C77.481 10.1692 75.0745 6.41412 71.4113 3.83997C67.8143 1.31233 63.6864 0.399979 59.758 0.399979V16.4C61.2636 16.4 61.9427 16.7416 62.2122 16.931C62.4155 17.0739 62.935 17.4988 63.3518 18.9578L78.7362 14.5622ZM59.758 0.399979H17.958V16.4H59.758V0.399979ZM17.958 0.399979C12.7793 0.399979 7.33141 2.11761 3.88905 6.7894C0.445956 11.4622 0.428404 17.1642 1.96216 22.0722L17.2338 17.2998C16.964 16.4363 16.9763 15.9746 16.9872 15.8595C16.9946 15.7822 16.9822 15.9925 16.7699 16.2806C16.5577 16.5686 16.3641 16.638 16.4476 16.6031C16.5663 16.5534 17.0227 16.4 17.958 16.4V0.399979ZM1.99127 22.1634L91.0253 295.535L106.239 290.581L17.2047 17.2086L1.99127 22.1634ZM90.9858 295.411C92.2954 299.667 94.7703 303.253 98.3854 305.695C101.928 308.089 105.989 309 109.918 309V293C108.413 293 107.667 292.657 107.343 292.438C107.092 292.268 106.641 291.883 106.278 290.705L90.9858 295.411ZM529.939 288.878L536.186 283.88L536.159 283.847L536.132 283.814L529.939 288.878ZM449.265 190.23L445.837 183.002L436.602 187.382L443.073 195.294L449.265 190.23ZM353.543 199.844V191.844H345.543V199.844H353.543ZM389.491 199.844L395.69 194.787L393.289 191.844H389.491V199.844ZM467.239 295.148L473.709 290.443L473.579 290.263L473.438 290.091L467.239 295.148ZM353.543 62.322V54.322H345.543V62.322H353.543ZM353.543 148.848H345.543V156.848H353.543V148.848ZM536.132 283.814L455.458 185.166L443.073 195.294L523.747 293.942L536.132 283.814ZM452.694 197.458C487.888 180.763 512.023 145.467 512.023 105.794H496.023C496.023 138.853 475.851 168.765 445.837 183.002L452.694 197.458ZM512.023 105.794C512.023 47.4762 464.992 0.399979 407.047 0.399979V16.4C456.111 16.4 496.023 56.2678 496.023 105.794H512.023ZM407.047 0.399979H353.543V16.4H407.047V0.399979ZM353.543 0.399979H305.891V16.4H353.543V0.399979ZM305.891 0.399979C301.133 0.399979 296.393 1.87141 292.902 5.58733C289.485 9.22507 288.277 13.9405 288.277 18.432H304.277C304.277 16.6535 304.742 16.3529 304.564 16.5421C304.491 16.6195 304.449 16.6155 304.566 16.5713C304.711 16.517 305.115 16.4 305.891 16.4V0.399979ZM288.277 18.432V291.386H304.277V18.432H288.277ZM288.277 291.386C288.277 295.885 289.494 300.619 293.076 304.201C296.658 307.783 301.392 309 305.891 309V293C304.121 293 304.047 292.545 304.39 292.887C304.733 293.23 304.277 293.157 304.277 291.386H288.277ZM305.891 309H343.511V293H305.891V309ZM343.511 309C348.089 309 352.925 307.852 356.602 304.29C360.323 300.686 361.543 295.887 361.543 291.386H345.543C345.543 292.262 345.424 292.722 345.365 292.892C345.318 293.025 345.328 292.935 345.469 292.798C345.802 292.476 345.621 293 343.511 293V309ZM361.543 291.386V199.844H345.543V291.386H361.543ZM353.543 207.844H389.491V191.844H353.543V207.844ZM383.293 204.901L461.041 300.205L473.438 290.091L395.69 194.787L383.293 204.901ZM460.77 299.853C463.122 303.089 465.961 305.577 469.529 307.132C472.975 308.634 476.504 309 479.779 309V293C477.621 293 476.552 292.739 475.922 292.465C475.415 292.243 474.7 291.805 473.709 290.443L460.77 299.853ZM479.779 309H524.087V293H479.779V309ZM524.087 309C529.783 309 536.365 306.938 539.283 300.664C542.154 294.492 539.624 288.177 536.186 283.88L523.693 293.876C524.031 294.299 524.244 294.642 524.373 294.889C524.437 295.012 524.477 295.105 524.501 295.17C524.526 295.234 524.533 295.266 524.533 295.265C524.533 295.264 524.5 295.123 524.519 294.867C524.539 294.603 524.612 294.269 524.776 293.916C524.94 293.562 525.155 293.279 525.365 293.076C525.568 292.879 525.72 292.801 525.741 292.79C525.759 292.782 525.651 292.836 525.372 292.893C525.092 292.949 524.671 293 524.087 293V309ZM353.543 70.322H407.047V54.322H353.543V70.322ZM407.047 70.322C423.75 70.322 438.757 85.3272 438.757 105.794H454.757C454.757 77.7728 433.817 54.322 407.047 54.322V70.322ZM438.757 105.794C438.757 126.156 423.847 140.848 407.047 140.848V156.848C433.72 156.848 454.757 133.92 454.757 105.794H438.757ZM407.047 140.848H353.543V156.848H407.047V140.848ZM361.543 148.848V62.322H345.543V148.848H361.543Z" fill="#EB8382" mask="url(#path-1-outside-1_46_3699)"/>
</g>
</svg>
